<?xml version="1.0" encoding="UTF-8" standalone="no"?>
<!-- Created with Inkscape (http://www.inkscape.org/) -->

<svg
   id="svg5"
   version="1.1"
   viewBox="0 0 210 297"
   height="297mm"
   width="210mm"
   sodipodi:docname="Arduino_Bjössi.svg"
   inkscape:version="1.1 (c68e22c387, 2021-05-23)"
   xmlns:inkscape="http://www.inkscape.org/namespaces/inkscape"
   xmlns:sodipodi="http://sodipodi.sourceforge.net/DTD/sodipodi-0.dtd"
   xmlns="http://www.w3.org/2000/svg"
   xmlns:svg="http://www.w3.org/2000/svg">
  <sodipodi:namedview
     id="namedview7"
     pagecolor="#ffffff"
     bordercolor="#666666"
     borderopacity="1.0"
     inkscape:pageshadow="2"
     inkscape:pageopacity="0.0"
     inkscape:pagecheckerboard="0"
     inkscape:document-units="mm"
     showgrid="false"
     inkscape:zoom="0.98520767"
     inkscape:cx="101.08921"
     inkscape:cy="282.13989"
     inkscape:window-width="1920"
     inkscape:window-height="986"
     inkscape:window-x="-11"
     inkscape:window-y="-11"
     inkscape:window-maximized="1"
     inkscape:current-layer="layer1"
     showguides="true"
     inkscape:guide-bbox="true" />
  <defs
     id="defs2" />
  <g
     inkscape:label="Layer 1"
     inkscape:groupmode="layer"
     id="layer1">
    <g
       id="panel2645">
      <path
         style="fill:none;stroke:#000000;stroke-width:1"
         d="M 28.4 97.9 L 35.2143 97.9 L 35.2143 94.8 L 41.4143 94.8 L 41.4143 97.9 L 48.1286 97.9 L 48.1286 94.8 L 54.3286 94.8 L 54.3286 97.9 L 61.0429 97.9 L 61.0429 94.8 L 67.2429 94.8 L 67.2429 97.9 L 73.9571 97.9 L 73.9571 94.8 L 80.1571 94.8 L 80.1571 97.9 L 86.8714 97.9 L 86.8714 94.8 L 93.0714 94.8 L 93.0714 97.9 L 99.7857 97.9 L 99.7857 94.8 L 105.986 94.8 L 105.986 97.9 L 112.8 97.9"
         id="path2643" />
      <path
         style="fill:none;stroke:#000000;stroke-width:1"
         d="M 112.8 97.9 L 112.8 105.1 L 109.7 105.1 L 109.7 110.9 L 112.8 110.9 L 112.8 118.1"
         id="path2645" />
      <path
         style="fill:none;stroke:#000000;stroke-width:1"
         d="M 112.8,118.1 H 28.4"
         id="path2647"
         sodipodi:nodetypes="cc" />
      <path
         style="fill:none;stroke:#000000;stroke-width:1"
         d="M 28.4 118.1 L 28.4 110.9 L 31.5 110.9 L 31.5 105.1 L 28.4 105.1 L 28.4 97.9"
         id="path2649" />
    </g>
    <g
       id="panel7865">
      <path
         style="fill:none;stroke:#000000;stroke-width:1"
         d="M 4.1 31.5 L 11.1 31.5 L 11.1 28.4 L 17.3 28.4 L 17.3 31.5 L 24.3 31.5"
         id="path2652" />
      <path
         style="fill:none;stroke:#000000;stroke-width:1"
         d="M 24.3 31.5 L 24.3 36.58 L 27.4 36.58 L 27.4 42.78 L 24.3 42.78 L 24.3 50.86 L 27.4 50.86 L 27.4 57.06 L 24.3 57.06 L 24.3 65.14 L 27.4 65.14 L 27.4 71.34 L 24.3 71.34 L 24.3 79.42 L 27.4 79.42 L 27.4 85.62 L 24.3 85.62 L 24.3 90.7"
         id="path2654" />
      <path
         style="fill:none;stroke:#000000;stroke-width:1"
         d="M 24.3 90.7 L 17.3 90.7 L 17.3 93.8 L 11.1 93.8 L 11.1 90.7 L 4.1 90.7"
         id="path2656" />
      <path
         style="fill:none;stroke:#000000;stroke-width:1"
         d="M 4.1,90.7 V 85.62 H 1 v -6.2 H 4.1 V 42.78 H 1 v -6.2 H 4.1 V 31.5"
         id="path2658"
         sodipodi:nodetypes="cccccccccc" />
    </g>
    <g
       id="panel8266">
      <path
         style="fill:none;stroke:#000000;stroke-width:1"
         d="M 28.4 28.4 L 35.4143 28.4 L 35.4143 31.5 L 41.2143 31.5 L 41.2143 28.4 L 48.3286 28.4 L 48.3286 31.5 L 54.1286 31.5 L 54.1286 28.4 L 61.2429 28.4 L 61.2429 31.5 L 67.0429 31.5 L 67.0429 28.4 L 74.1571 28.4 L 74.1571 31.5 L 79.9571 31.5 L 79.9571 28.4 L 87.0714 28.4 L 87.0714 31.5 L 92.8714 31.5 L 92.8714 28.4 L 99.9857 28.4 L 99.9857 31.5 L 105.786 31.5 L 105.786 28.4 L 112.8 28.4"
         id="path2661" />
      <path
         style="fill:none;stroke:#000000;stroke-width:1"
         d="M 112.8 28.4 L 112.8 36.78 L 109.7 36.78 L 109.7 42.58 L 112.8 42.58 L 112.8 51.06 L 109.7 51.06 L 109.7 56.86 L 112.8 56.86 L 112.8 65.34 L 109.7 65.34 L 109.7 71.14 L 112.8 71.14 L 112.8 79.62 L 109.7 79.62 L 109.7 85.42 L 112.8 85.42 L 112.8 93.8"
         id="path2663" />
      <path
         style="fill:none;stroke:#000000;stroke-width:1"
         d="M 112.8 93.8 L 105.786 93.8 L 105.786 90.7 L 99.9857 90.7 L 99.9857 93.8 L 92.8714 93.8 L 92.8714 90.7 L 87.0714 90.7 L 87.0714 93.8 L 79.9571 93.8 L 79.9571 90.7 L 74.1571 90.7 L 74.1571 93.8 L 67.0429 93.8 L 67.0429 90.7 L 61.2429 90.7 L 61.2429 93.8 L 54.1286 93.8 L 54.1286 90.7 L 48.3286 90.7 L 48.3286 93.8 L 41.2143 93.8 L 41.2143 90.7 L 35.4143 90.7 L 35.4143 93.8 L 28.4 93.8"
         id="path2665" />
      <path
         style="fill:none;stroke:#000000;stroke-width:1"
         d="M 28.4 93.8 L 28.4 85.42 L 31.5 85.42 L 31.5 79.62 L 28.4 79.62 L 28.4 71.14 L 31.5 71.14 L 31.5 65.34 L 28.4 65.34 L 28.4 56.86 L 31.5 56.86 L 31.5 51.06 L 28.4 51.06 L 28.4 42.58 L 31.5 42.58 L 31.5 36.78 L 28.4 36.78 L 28.4 28.4"
         id="path2667" />
    </g>
    <g
       id="panel1938">
      <path
         style="fill:none;stroke:#000000;stroke-width:1"
         d="M 116.9 31.5 L 123.9 31.5 L 123.9 28.4 L 130.1 28.4 L 130.1 31.5 L 137.1 31.5"
         id="path2670" />
      <path
         style="fill:none;stroke:#000000;stroke-width:1"
         d="m 137.1,31.5 v 5.08 h 3.1 v 6.2 h -3.1 v 36.64 h 3.1 v 6.2 h -3.1 v 5.08"
         id="path2672"
         sodipodi:nodetypes="cccccccccc" />
      <path
         style="fill:none;stroke:#000000;stroke-width:1"
         d="M 137.1 90.7 L 130.1 90.7 L 130.1 93.8 L 123.9 93.8 L 123.9 90.7 L 116.9 90.7"
         id="path2674" />
      <path
         style="fill:none;stroke:#000000;stroke-width:1"
         d="M 116.9 90.7 L 116.9 85.62 L 113.8 85.62 L 113.8 79.42 L 116.9 79.42 L 116.9 71.34 L 113.8 71.34 L 113.8 65.14 L 116.9 65.14 L 116.9 57.06 L 113.8 57.06 L 113.8 50.86 L 116.9 50.86 L 116.9 42.78 L 113.8 42.78 L 113.8 36.58 L 116.9 36.58 L 116.9 31.5"
         id="path2676" />
    </g>
    <g
       id="panel4020"
       transform="translate(-22.017406,99.097356)">
      <path
         style="fill:none;stroke:#000000;stroke-width:1"
         d="m 167.8388,-71.363808 h 89.69166"
         id="path2679"
         sodipodi:nodetypes="cc" />
      <path
         style="fill:none;stroke:#000000;stroke-width:1"
         d="m 257.53046,-71.363808 v 8.38 h -5.74583 v 5.8 h 5.74583 v 8.48 h -5.74583 v 20.08 h 5.74583 v 8.48 h -5.74583 v 5.8 h 5.74583 v 8.3799995"
         id="path2681"
         sodipodi:nodetypes="cccccccccccccc" />
      <path
         style="fill:none;stroke:#000000;stroke-width:1"
         d="m 257.53046,-5.9638085 h -89.1625"
         id="path2683"
         sodipodi:nodetypes="cc" />
      <path
         style="fill:none;stroke:#000000;stroke-width:1"
         d="m 167.8388,-5.9638085 v -8.3799995 h 5.74583 v -5.8 h -5.74583 v -8.48 h 5.74583 v -20.08 h -5.74583 v -8.48 h 5.74583 v -5.8 h -5.74583 v -8.38"
         id="path2685"
         sodipodi:nodetypes="cccccccccccccc" />
    </g>
    <g
       id="panel9588">
      <path
         style="fill:none;stroke:#000000;stroke-width:1"
         d="m 28.4,4.1 h 84.4"
         id="path2688"
         sodipodi:nodetypes="cc" />
      <path
         style="fill:none;stroke:#000000;stroke-width:1"
         d="M 112.8 4.1 L 112.8 11.3 L 109.7 11.3 L 109.7 17.1 L 112.8 17.1 L 112.8 24.3"
         id="path2690" />
      <path
         style="fill:none;stroke:#000000;stroke-width:1"
         d="M 112.8 24.3 L 105.986 24.3 L 105.986 27.4 L 99.7857 27.4 L 99.7857 24.3 L 93.0714 24.3 L 93.0714 27.4 L 86.8714 27.4 L 86.8714 24.3 L 80.1571 24.3 L 80.1571 27.4 L 73.9571 27.4 L 73.9571 24.3 L 67.2429 24.3 L 67.2429 27.4 L 61.0429 27.4 L 61.0429 24.3 L 54.3286 24.3 L 54.3286 27.4 L 48.1286 27.4 L 48.1286 24.3 L 41.4143 24.3 L 41.4143 27.4 L 35.2143 27.4 L 35.2143 24.3 L 28.4 24.3"
         id="path2692" />
      <path
         style="fill:none;stroke:#000000;stroke-width:1"
         d="M 28.4 24.3 L 28.4 17.1 L 31.5 17.1 L 31.5 11.3 L 28.4 11.3 L 28.4 4.1"
         id="path2694" />
    </g>
    <ellipse
       style="opacity:0;fill:#ff0000;stroke-width:0.264583;stroke:#000000"
       id="path5753"
       cx="152.99864"
       cy="14.316762"
       rx="9.6663132"
       ry="4.4083734" />
    <rect
       style="opacity:1;fill:none;stroke:#000000;stroke-width:0.264583"
       id="rect6353"
       width="13"
       height="11"
       x="7.2229056"
       y="73.683563" />
    <rect
       style="opacity:1;fill:none;stroke:#000000;stroke-width:0.264583"
       id="rect6617"
       width="12"
       height="14"
       x="8.2229052"
       y="43.721481" />
    <rect
       style="opacity:1;fill:none;stroke:#000000;stroke-width:0.264583"
       id="rect7398"
       width="63.652462"
       height="13.943414"
       x="158.45985"
       y="35.127319" />
    <rect
       style="opacity:1;fill:none;stroke:#000000;stroke-width:0.264583"
       id="rect7562"
       width="63.652462"
       height="13.943414"
       x="159.00893"
       y="70.576515" />
    <g
       aria-label="Bjössi
"
       transform="scale(1.1395942,0.87750535)"
       id="text9568"
       style="font-size:13.3704px;line-height:1.25;stroke-width:0.33426;fill:#ff0000">
      <path
         d="m 157.42936,68.288474 q 0,0.724665 -0.2742,1.279589 -0.2742,0.554924 -0.73772,0.913992 -0.5484,0.430882 -1.20778,0.61368 -0.65285,0.182799 -1.66477,0.182799 h -3.44706 v -9.72096 h 2.87908 q 1.06415,0 1.59296,0.07834 0.52881,0.07834 1.01192,0.326426 0.53533,0.280726 0.77689,0.724665 0.24155,0.437411 0.24155,1.051091 0,0.692023 -0.35254,1.181662 -0.35254,0.48311 -0.9401,0.776893 v 0.05223 q 0.9858,0.202384 1.55379,0.868293 0.56798,0.65938 0.56798,1.6713 z m -2.174,-4.380634 q 0,-0.35254 -0.11751,-0.594095 -0.11752,-0.241555 -0.37866,-0.391711 -0.30684,-0.17627 -0.74425,-0.215441 -0.43741,-0.0457 -1.08373,-0.0457 h -1.54073 v 2.807262 h 1.6713 q 0.60715,0 0.96622,-0.05876 0.35907,-0.06529 0.66591,-0.26114 0.30684,-0.195856 0.43088,-0.502696 0.13057,-0.313369 0.13057,-0.737722 z m 0.82912,4.432862 q 0,-0.587567 -0.17627,-0.933578 -0.17627,-0.346011 -0.63979,-0.587566 -0.31337,-0.163213 -0.76384,-0.208913 -0.44394,-0.05223 -1.08373,-0.05223 h -2.03037 v 3.616798 h 1.71047 q 0.84871,0 1.39057,-0.08487 0.54187,-0.0914 0.88788,-0.326426 0.3656,-0.254612 0.53534,-0.581038 0.16974,-0.326425 0.16974,-0.842178 z"
         id="path9916"
         style="fill:#ff0000" />
      <path
         d="m 161.43787,62.765349 h -1.38405 v -1.27306 h 1.38405 z m -0.0784,8.689455 q 0,1.279589 -0.65285,1.932441 -0.65285,0.652851 -1.74964,0.652851 -0.26114,0 -0.69202,-0.05223 -0.42436,-0.05223 -0.71161,-0.13057 v -1.168605 h 0.0653 q 0.1828,0.07181 0.48964,0.163213 0.31337,0.0914 0.60715,0.0914 0.47006,0 0.75731,-0.13057 0.28726,-0.13057 0.43088,-0.391711 0.14363,-0.26114 0.1828,-0.633266 0.0457,-0.365597 0.0457,-0.894406 v -5.875665 h -1.52114 v -1.031505 h 2.7485 z"
         id="path9918"
         style="fill:#ff0000" />
      <path
         d="m 169.98369,67.635622 q 0,1.782285 -0.91399,2.81379 -0.91399,1.031506 -2.44819,1.031506 -1.54726,0 -2.46125,-1.031506 -0.90747,-1.031505 -0.90747,-2.81379 0,-1.782285 0.90747,-2.81379 0.91399,-1.038034 2.46125,-1.038034 1.5342,0 2.44819,1.038034 0.91399,1.031505 0.91399,2.81379 z m -1.26653,0 q 0,-1.416688 -0.55492,-2.102182 -0.55493,-0.692023 -1.54073,-0.692023 -0.99887,0 -1.55379,0.692023 -0.5484,0.685494 -0.5484,2.102182 0,1.370988 0.55493,2.082597 0.55492,0.705079 1.54726,0.705079 0.97927,0 1.5342,-0.698551 0.56145,-0.70508 0.56145,-2.089125 z m -0.0979,-4.870273 h -1.29917 v -1.27306 h 1.29917 z m -2.69627,0 h -1.29918 v -1.27306 h 1.29918 z"
         id="path9920"
         style="fill:#ff0000" />
      <path
         d="m 177.09325,69.176352 q 0,0.998863 -0.82913,1.638657 -0.82259,0.639795 -2.25233,0.639795 -0.80954,0 -1.48851,-0.189327 -0.67243,-0.195856 -1.12943,-0.424354 v -1.377516 h 0.0653 q 0.58103,0.43741 1.29264,0.698551 0.71161,0.254612 1.36446,0.254612 0.80954,0 1.26653,-0.261141 0.457,-0.26114 0.457,-0.822593 0,-0.430882 -0.24808,-0.652851 -0.24809,-0.22197 -0.95317,-0.378654 -0.26114,-0.05876 -0.68549,-0.137099 -0.41783,-0.07834 -0.76384,-0.169742 -0.95969,-0.254612 -1.36446,-0.74425 -0.39824,-0.496168 -0.39824,-1.214304 0,-0.450468 0.1828,-0.848707 0.18933,-0.39824 0.56798,-0.711609 0.3656,-0.30684 0.92705,-0.48311 0.56798,-0.182798 1.26653,-0.182798 0.65286,0 1.31876,0.163213 0.67244,0.156684 1.11638,0.385182 v 1.312232 h -0.0653 q -0.47006,-0.346012 -1.14249,-0.581038 -0.67244,-0.241555 -1.31876,-0.241555 -0.67244,0 -1.13597,0.26114 -0.46352,0.254613 -0.46352,0.763837 0,0.450467 0.28073,0.678965 0.27419,0.228499 0.88787,0.372126 0.33949,0.07834 0.75731,0.156684 0.42435,0.07834 0.70508,0.143628 0.85524,0.195855 1.31876,0.672437 0.46353,0.48311 0.46353,1.279589 z"
         id="path9922"
         style="fill:#ff0000" />
      <path
         d="m 184.05917,69.176352 q 0,0.998863 -0.82912,1.638657 -0.82259,0.639795 -2.25234,0.639795 -0.80953,0 -1.4885,-0.189327 -0.67244,-0.195856 -1.12943,-0.424354 v -1.377516 h 0.0653 q 0.58104,0.43741 1.29265,0.698551 0.71161,0.254612 1.36446,0.254612 0.80954,0 1.26653,-0.261141 0.457,-0.26114 0.457,-0.822593 0,-0.430882 -0.24809,-0.652851 -0.24808,-0.22197 -0.95316,-0.378654 -0.26114,-0.05876 -0.68549,-0.137099 -0.41783,-0.07834 -0.76384,-0.169742 -0.95969,-0.254612 -1.36446,-0.74425 -0.39824,-0.496168 -0.39824,-1.214304 0,-0.450468 0.1828,-0.848707 0.18933,-0.39824 0.56798,-0.711609 0.3656,-0.30684 0.92705,-0.48311 0.56798,-0.182798 1.26653,-0.182798 0.65285,0 1.31876,0.163213 0.67244,0.156684 1.11638,0.385182 v 1.312232 h -0.0653 q -0.47005,-0.346012 -1.14249,-0.581038 -0.67243,-0.241555 -1.31876,-0.241555 -0.67243,0 -1.13596,0.26114 -0.46352,0.254613 -0.46352,0.763837 0,0.450467 0.28072,0.678965 0.2742,0.228499 0.88788,0.372126 0.33948,0.07834 0.75731,0.156684 0.42435,0.07834 0.70508,0.143628 0.85523,0.195855 1.31876,0.672437 0.46352,0.48311 0.46352,1.279589 z"
         id="path9924"
         style="fill:#ff0000" />
      <path
         d="m 187.1341,62.765349 h -1.38404 v -1.27306 h 1.38404 z m -0.0783,8.513185 h -1.22736 v -7.292352 h 1.22736 z"
         id="path9926"
         style="fill:#ff0000" />
    </g>
  </g>
</svg>
