<?xml version="1.0" encoding="UTF-8" standalone="no"?>
<!-- Created with Inkscape (http://www.inkscape.org/) -->

<svg
   width="210mm"
   height="297mm"
   viewBox="0 0 210 297"
   version="1.1"
   id="svg59361"
   inkscape:version="1.1 (c68e22c387, 2021-05-23)"
   sodipodi:docname="LOGO.svg"
   inkscape:export-filename="C:\Users\Bjossi\OneDrive\Documents\TSkoli\vesm1\LOGO.png"
   inkscape:export-xdpi="96"
   inkscape:export-ydpi="96"
   xmlns:inkscape="http://www.inkscape.org/namespaces/inkscape"
   xmlns:sodipodi="http://sodipodi.sourceforge.net/DTD/sodipodi-0.dtd"
   xmlns:xlink="http://www.w3.org/1999/xlink"
   xmlns="http://www.w3.org/2000/svg"
   xmlns:svg="http://www.w3.org/2000/svg">
  <sodipodi:namedview
     id="namedview59363"
     pagecolor="#ffffff"
     bordercolor="#666666"
     borderopacity="1.0"
     inkscape:pageshadow="2"
     inkscape:pageopacity="0.0"
     inkscape:pagecheckerboard="0"
     inkscape:document-units="mm"
     showgrid="false"
     showguides="true"
     inkscape:guide-bbox="true"
     inkscape:object-paths="true"
     inkscape:snap-intersection-paths="false"
     inkscape:object-nodes="false"
     inkscape:snap-nodes="true"
     inkscape:zoom="0.98520764"
     inkscape:cx="262.26473"
     inkscape:cy="692.53324"
     inkscape:window-width="1920"
     inkscape:window-height="986"
     inkscape:window-x="-11"
     inkscape:window-y="-11"
     inkscape:window-maximized="1"
     inkscape:current-layer="layer1">
    <sodipodi:guide
       position="-138.26924,46.703298"
       orientation="0.70710678,0.70710678"
       id="guide59579"
       inkscape:label=""
       inkscape:locked="false"
       inkscape:color="rgb(0,0,255)" />
    <sodipodi:guide
       position="-14.592245,83.89288"
       orientation="0,-1"
       id="guide60863" />
  </sodipodi:namedview>
  <defs
     id="defs59358">
    <inkscape:path-effect
       effect="bspline"
       id="path-effect87112"
       is_visible="true"
       lpeversion="1"
       weight="33.333333"
       steps="2"
       helper_size="0"
       apply_no_weight="true"
       apply_with_weight="true"
       only_selected="false" />
    <rect
       x="69.485613"
       y="852.63298"
       width="605.02721"
       height="72.270731"
       id="rect79898" />
    <inkscape:path-effect
       effect="bspline"
       id="path-effect76559"
       is_visible="true"
       lpeversion="1"
       weight="33.333333"
       steps="2"
       helper_size="0"
       apply_no_weight="true"
       apply_with_weight="true"
       only_selected="false" />
    <inkscape:path-effect
       effect="bspline"
       id="path-effect71804"
       is_visible="true"
       lpeversion="1"
       weight="33.333333"
       steps="2"
       helper_size="0"
       apply_no_weight="true"
       apply_with_weight="true"
       only_selected="false" />
    <clipPath
       clipPathUnits="userSpaceOnUse"
       id="clipPath64343">
      <path
         id="path64345"
         style="fill:#ff0000;fill-opacity:1;fill-rule:nonzero;stroke:none;stroke-width:0.264583"
         d="m 128.526,88.092814 c 1.14645,0.179176 2.41839,0.386731 3.32693,0.516763 0.33138,-0.132572 0.76616,-0.07206 1.08366,-0.168465 0.57077,-0.06489 1.14147,-0.131726 1.71204,-0.198438 0.17035,-0.01992 0.34299,-0.02535 0.51108,-0.05942 0.0805,-0.01633 0.14904,-0.07359 0.22944,-0.09043 z m 11.89127,0 c 0.0481,0.0613 0.0944,0.124217 0.13901,0.188619 v -0.188619 z m -46.951141,0.876433 c -0.106299,0.123256 -0.224287,0.234571 -0.353465,0.33383 0.07492,-0.02826 0.161597,-0.05005 0.22324,-0.07596 0.10714,-0.04506 0.216408,-0.08474 0.326596,-0.121957 -0.09733,0.0055 -0.201911,0.01355 -0.201022,-0.06149 2.64e-4,-0.02492 0.003,-0.04963 0.0047,-0.07441 z m 0.358119,0.02585 c -0.01844,2.54e-4 -0.0068,0.01445 0.04186,0.04599 5.29e-4,-1.56e-4 0.0011,-2.11e-4 0.0016,-5.29e-4 -0.0011,-0.01207 -0.0026,-0.0241 -0.0036,-0.03617 -0.01199,-0.0024 -0.03317,-0.0094 -0.03979,-0.0093 z m 43.801972,0.22479 c -0.20975,-5.3e-4 -0.41915,0.0011 -0.6289,0.0011 -0.01,0.0036 -0.02,0.0063 -0.03,0.0098 0.0826,0.01003 0.1654,0.01921 0.24805,0.02946 0.22134,0.02746 0.44268,0.05528 0.66404,0.08268 0.0132,-0.0021 0.0265,-0.0042 0.0398,-0.0062 0.0503,-0.03688 0.10062,-0.07371 0.15089,-0.110588 -0.1479,-0.0029 -0.29597,-0.0059 -0.4439,-0.0062 z m -31.61357,0.03101 c -0.0299,0.02794 -0.0672,0.04466 -0.11369,0.05271 -7.9e-4,0.0026 -0.002,0.0046 -0.002,0.0067 0.078,0.125433 0.11514,0.221522 0.11731,0.294039 0.47963,-0.05771 0.95942,-0.114649 1.43867,-0.174667 -0.38864,-0.01723 -0.85218,-0.08266 -1.12138,-0.119372 -0.10711,-0.0146 -0.21282,-0.03807 -0.31884,-0.05943 z m 1.59887,0.0041 c -2.3e-4,0.03222 -2.3e-4,0.06441 -5.3e-4,0.09663 0.004,-0.04427 0.004,-0.05474 0.007,-0.09612 -0.002,-5e-6 -0.004,-5.29e-4 -0.007,-5.29e-4 z m -14.623398,0.119888 c -0.359045,0.198646 -0.830543,0.145137 -1.241785,0.223242 -0.04665,0.0089 -0.03622,0.0068 -0.07596,0.01447 0.01119,0.02246 0.02352,0.04431 0.03256,0.0677 0.01323,0.03428 0.01466,0.0725 0.02326,0.108003 0.44388,-0.07835 0.918411,-0.161722 1.248502,-0.221692 -0.0054,-0.03764 -0.01058,-0.06374 -0.01603,-0.10387 -0.0048,-0.03534 0.0074,-0.06392 0.02946,-0.08785 z m 19.801888,0.168981 c 0.003,0.179755 -0.0265,0.257254 -0.13022,0.300241 -2.2e-4,2.65e-4 -8e-4,1.88e-4 -0.001,5.29e-4 -0.005,0.0062 -0.0147,0.0079 -0.0259,0.0088 -0.095,0.03155 -0.24059,0.04646 -0.46406,0.08371 -0.19758,0.02514 -0.39305,0.06277 -0.58756,0.104386 0.53761,0.0011 1.07524,7.94e-4 1.61282,0.0021 0.30942,7.94e-4 3.82784,0.0036 3.96772,0.0987 0.1677,0.114032 0.18642,0.308168 0.15916,0.5271 0.97,0.06843 1.99023,0.14083 3.08974,0.21704 -0.0782,-0.02424 -0.14972,-0.04878 -0.23203,-0.07441 -0.84872,-0.247512 -1.70637,-0.459959 -2.56522,-0.668692 -0.21252,-0.05165 -0.42861,-0.08995 -0.6382,-0.152445 -0.3905,-0.11644 -0.64989,-0.207854 -0.9033,-0.304374 -0.3854,-0.05231 -0.77136,-0.100071 -1.15756,-0.137461 -0.10216,-0.0099 -0.20483,-7.94e-4 -0.30747,-0.0011 -0.31621,-0.0011 -0.63257,-0.0029 -0.94878,-0.0041 -0.28934,-5.29e-4 -0.57881,2.64e-4 -0.86816,0 z m 25.30699,1.199928 c -0.003,7.93e-4 -0.006,0.0019 -0.009,0.0026 -0.0201,0.01243 -0.0405,0.02445 -0.061,0.03617 0.003,-7.94e-4 0.005,-7.94e-4 0.008,-0.0016 0.0153,-0.0054 0.0399,-0.02257 0.062,-0.03721 z m 0.97306,0.106971 c -0.0755,0.05582 -0.14989,0.102304 -0.21497,0.11472 -0.21994,0.04197 -0.44272,0.06825 -0.66611,0.08423 0.0423,0.01326 0.0846,0.02743 0.12712,0.03979 -0.16148,-0.0182 -0.3512,-0.0334 -0.51211,-0.01138 -0.0694,0.0095 -0.13417,0.04042 -0.20257,0.05529 -0.0758,0.01646 -0.15256,0.02881 -0.22893,0.04237 -0.27,0.162063 -0.5571,0.221261 -0.87746,0.19172 -0.069,-2.65e-4 -0.14332,-0.0019 -0.21498,-0.0031 -0.003,5.29e-4 -0.006,0.0013 -0.009,0.0021 -0.0695,0.01479 -0.14212,0.003 -0.21343,5.29e-4 -0.009,5.29e-4 -0.0227,-2.35e-4 -0.031,5.29e-4 -0.27764,0.01582 -0.55456,0.01061 -0.83096,-0.0041 -0.34526,-0.0011 -0.69034,-0.0024 -1.0356,-0.0036 -0.33214,0.07549 -0.66094,0.16805 -0.99735,0.220657 -0.15804,0.02471 -0.3083,0.03657 -0.46251,0.05529 1.61817,0.09069 3.23649,0.180567 4.85449,0.27337 0.52397,0.02729 1.01631,0.05268 1.5167,0.07803 0.002,-0.28039 0.004,-0.560779 0.004,-0.841293 -0.002,-0.09784 -0.003,-0.196747 -0.005,-0.295071 z M 137.496,91.09416 c -0.037,0.0271 -0.0745,0.0519 -0.11214,0.07493 0.007,-0.0013 0.01,-0.0021 0.015,-0.0031 0.0325,-0.02387 0.1295,-0.09563 0.0972,-0.07183 z m -29.78475,0.378272 v 5.3e-4 c -1.41476,-0.0039 -2.82926,0.01331 -4.24263,0.0801 -1.01733,0.03984 -2.03479,0.07698 -3.05201,0.119375 -1.880337,0.07835 -2.880078,0.154929 -4.849832,0.161229 -2.721028,0.0088 0.323715,-0.188204 -3.178101,-0.04806 0.0097,0.144354 0.0085,0.28661 0.02532,0.439251 0.185997,0.419129 0.194305,0.398192 0.325046,0.93069 0.03985,0.16224 -0.0316,0.48093 -0.0021,0.657325 -7.94e-4,0.226338 -0.0019,0.452687 -0.0026,0.67903 -0.0013,0.424122 -0.0027,0.848148 -0.0041,1.272273 -5.29e-4,0.150542 -0.0011,0.301109 -0.0016,0.451651 l -0.0041,1.14825 c -0.0021,0.612624 -0.0041,1.22551 -0.0062,1.838131 0.01947,0.160081 0.02252,0.314246 0.01138,0.490411 -0.007,0.05616 -0.0099,0.112548 -0.01344,0.168981 -7.93e-4,0.230281 -0.0013,0.460641 -0.0021,0.690921 -2.9e-5,0.009 2.9e-5,0.0173 0,0.0258 2.62e-4,0.0217 7.93e-4,0.0435 0.0011,0.0651 5.29e-4,0.0653 -7.94e-4,0.1306 -0.0016,0.19586 0.0011,0.0766 0.04509,0.18397 0.04599,0.26045 0.09796,0.15453 0.160245,0.33482 0.203605,0.50591 0.01024,0.009 0.03952,0.046 0.04289,0.0822 0.229759,0.40677 -0.08104,-0.20648 0.09457,0.65836 0.01291,0.0636 0.0031,-0.17213 0.06718,-0.18293 0.03085,-0.005 0.0377,0.0283 0.03979,0.0687 0.0328,0.0164 0.05805,0.0569 0.08888,0.0796 0.296479,0.21851 0.375722,0.39588 0.39584,0.62632 0.07335,0.08 0.114353,0.16511 0.09095,0.24959 0.03369,0.0941 -1.59e-4,0.53822 -0.0057,0.6196 -0.0075,0.0768 -0.0049,0.15363 -0.0026,0.23048 0.701198,0.30502 0.715793,1.46124 -0.199988,1.29707 -0.161745,0.16526 -0.442281,0.2774 -0.837158,0.26201 -0.06237,0.0285 -0.125907,0.0344 -0.1788,0.004 -0.008,-0.005 -0.01587,-0.01 -0.02379,-0.0145 -0.142401,-0.009 -0.175234,-0.0262 -0.158647,-0.11679 -0.05332,-0.0464 -0.102738,-0.0974 -0.149344,-0.15193 -0.02259,0.0681 -0.04784,0.14021 -0.07648,0.21704 -0.111578,-0.30718 -0.357839,-0.59538 -0.334865,-0.92139 5.29e-4,-0.009 0.0024,-0.0174 0.0041,-0.0264 -0.01003,-0.027 -0.01966,-0.0543 -0.02894,-0.0811 -0.0328,-0.095 0.107678,-0.14238 0.225312,-0.18604 -0.09301,0.0635 -0.17702,0.17351 -0.196372,0.26717 0.09597,0.25843 0.227659,0.5208 0.40721,0.7307 0.132623,-0.39987 0.167301,-0.65142 0.183968,-0.8108 -0.0487,-0.0769 -0.105477,-0.14775 -0.173115,-0.2098 -0.02833,-0.026 -0.06396,-0.0338 -0.102319,-0.0284 0.08995,-0.0416 0.19209,-0.0765 0.298172,-0.10748 1e-4,-0.011 2.64e-4,-0.009 5.29e-4,-0.0326 9e-5,-0.1381 -0.01146,-0.276 0.0036,-0.41393 0.0011,-0.0134 0.0055,-0.0619 0.01138,-0.12092 -0.130728,-0.11347 -0.205184,-0.24203 -0.155549,-0.36794 -0.161433,-0.14501 -0.289837,-0.30618 -0.371035,-0.53175 -0.1118,-0.39712 -0.03303,-0.0901 -0.0341,-0.27233 -0.104685,-0.13117 -0.151871,-0.29509 -0.214458,-0.44959 -0.0061,-0.0415 -0.01154,-0.07 -0.01344,-0.0884 -0.196056,-0.16451 -0.366686,-0.34669 -0.50333,-0.57206 -0.02273,-0.0535 -0.05024,-0.1049 -0.06821,-0.1602 -0.01206,-0.0371 -0.02106,-0.0751 -0.03152,-0.11265 -0.06003,-0.11065 -0.112628,-0.25767 -0.163298,-0.39584 v 42.72038 H 136.0324 c -0.0206,-0.0523 0.0463,-0.15444 0.0496,-0.22375 0.008,-0.1605 0.009,-0.32096 0.0108,-0.48163 0.0116,-0.8315 -0.0462,-0.14262 0.19482,-1.50223 -0.01,-0.075 -0.0199,-0.13936 -0.03,-0.19999 -0.0295,-0.0109 -0.045,-0.0265 -0.0491,-0.0693 -0.006,-0.004 -0.0121,-0.007 -0.0165,-0.009 -0.014,-0.005 -0.0289,-0.005 -0.0434,-0.007 -0.0266,-0.0104 -0.0534,-0.0211 -0.0801,-0.0315 -0.28174,-0.18165 -0.59192,-0.44909 -0.74569,-0.77359 -0.0881,-0.0657 -0.17497,-0.1327 -0.25528,-0.20568 -0.20717,-0.0186 -0.0869,0.0376 -0.40256,-0.18707 -0.0234,0.29199 -0.0828,0.19327 -0.13643,-0.0207 -0.22786,0.69767 -0.49719,-0.14945 -0.59686,-0.74983 -0.0715,-0.009 -0.0425,0.0138 -0.14263,-0.36018 0.0525,0.0865 0.0903,0.15429 0.12144,0.21342 -0.0114,-0.0901 -0.0158,-0.16295 -0.016,-0.22324 -0.0518,-0.1405 -0.0823,-0.31086 -0.0816,-0.51211 l 0.003,-0.89349 c -0.1498,0.0171 -0.12716,0.0124 0,-0.004 v -0.0755 c 8e-5,-0.0223 -0.0224,-0.0682 0,-0.0672 0.15625,0.008 0.38303,0.0304 0.61082,0.0558 -0.18098,-0.0239 -0.35401,-0.0465 -0.61082,-0.0811 1e-5,-0.14651 5.3e-4,-0.29325 0.001,-0.43976 6e-5,-0.0188 -5e-5,-0.0374 0,-0.0563 0.002,-0.6644 0.33927,-0.99545 0.6749,-0.99426 0.33563,0.001 0.67018,0.3348 0.66817,0.99943 -6e-5,0.0188 -5.3e-4,0.0374 -5.3e-4,0.0563 0,0.14651 -1e-5,0.29325 -5.2e-4,0.43976 -0.25588,0.0327 -0.42812,0.0543 -0.60875,0.077 0.22709,-0.0238 0.45252,-0.0449 0.60823,-0.0522 0.0224,-0.001 8e-5,0.0448 0,0.0672 v 0.0749 c 0.12605,0.0174 0.14823,0.0222 0,0.004 l -0.003,0.89452 c -1.7e-4,0.0516 -0.003,0.1007 -0.007,0.14831 0.008,0.0313 0.0174,0.0627 0.0248,0.0935 0.1105,0.0172 0.10394,-0.004 0.15193,0.0775 0.0311,0.0145 0.0581,0.0309 0.0765,0.0481 0.0686,0.0641 0.1161,0.14266 0.15452,0.22841 0.002,5.3e-4 0.004,0.001 0.006,0.002 -0.0271,-0.0976 -0.0445,-0.13239 0.01,-5.3e-4 0.0104,-0.2713 0.0726,-0.14889 0.12919,0.0543 0.0135,0.006 0.024,0.0125 0.0367,0.0186 0.20414,-0.26069 0.59827,-0.28995 0.93535,0.0382 0.0527,-0.54573 0.0803,-0.91938 0.0455,-1.46038 -7.9e-4,-0.0124 -0.0248,-0.0151 -0.0269,-0.0274 -0.0266,-0.16137 -0.039,-0.3244 -0.0584,-0.4868 -0.0581,-0.50197 5.3e-4,-0.99178 0.0946,-1.48259 0.2185,-0.84178 0.31137,-1.71149 0.50385,-2.55799 0.0545,-0.2396 0.12824,-0.47437 0.19224,-0.71158 0.0391,-0.10792 0.0783,-0.2161 0.1173,-0.32401 8e-4,0.008 0.002,0.009 0.004,-0.004 5.3e-4,-0.004 5.3e-4,-0.008 0.001,-0.0114 -0.002,0.003 -0.003,0.007 -0.004,0.0108 -0.002,-0.0293 2.3e-4,-0.12061 0.0114,-0.15709 0.004,-0.0146 0.006,-0.002 0.006,0.0181 0.0196,-0.20741 0.0318,-0.41567 0.0656,-0.62115 0.0241,-0.14616 0.0764,-0.28661 0.11575,-0.42943 0.0651,-0.23647 0.13162,-0.4722 0.19741,-0.70848 0.17807,-0.54362 0.24985,-1.10983 0.42426,-1.65365 0.16806,-0.52412 0.0706,-0.14657 0.13384,-0.39998 0.14065,-0.56429 0.47608,-0.81145 0.77825,-0.80408 0.0754,0.002 0.1488,0.0201 0.21652,0.0527 5.3e-4,-0.15141 8e-4,-0.30333 0.002,-0.45475 1.4e-4,-0.12728 5.3e-4,-0.2546 0.001,-0.38189 1.9e-4,-0.056 -0.054,-0.15463 5.3e-4,-0.16743 0.0157,-0.004 0.0323,-0.007 0.0491,-0.009 0,0 5.3e-4,0 5.3e-4,0 9e-5,1e-4 5.3e-4,-9e-5 5.3e-4,0 -0.0111,-0.0121 -0.02,-0.0258 -0.0274,-0.0413 0.17882,-0.002 0.41948,-0.0849 0.64751,-0.15864 -0.35039,-0.11581 -0.66752,-0.20811 -0.6687,0.0589 -1.4e-4,0.0396 0.008,0.0719 0.0207,0.0992 -0.008,9e-5 -0.0151,1.9e-4 -0.0222,0 -0.005,-1.4e-4 0.009,-1.10758 0.004,-1.15807 -0.28803,-0.004 -0.40586,-0.01 0,-0.016 1.3e-4,0 -1.2e-4,0.0149 0,0.016 0.11472,0.002 0.27613,5.3e-4 0.42633,0.002 -0.55383,-0.42593 -0.46738,-0.85255 -0.45114,-1.44126 0.0133,-1.57815 0.0487,-3.15379 0.11989,-4.73046 0.0153,-0.33804 0.0529,-1.61082 0.17208,-2.08049 0.0298,-0.1173 0.0959,-0.22132 0.15555,-0.32763 0.0105,-0.182 0.01,-0.36437 0.009,-0.54674 -0.0726,-0.20745 -0.12742,-0.41892 -0.13849,-0.65009 0.004,-0.0546 0.0107,-0.15891 0.0191,-0.25838 -0.0192,-0.0304 -0.0739,-0.11665 -0.0408,-0.0636 -0.004,-0.0123 -0.0253,-0.0366 -0.0124,-0.0367 0.0173,-1.9e-4 0.0429,0.0164 0.0599,0.0279 1.3e-4,-0.001 2.2e-4,-0.002 5.3e-4,-0.004 -0.046,-0.0439 -0.10452,-0.0745 -0.14831,-0.12093 -0.234,-0.24806 -0.30877,-0.43922 -0.33435,-0.72812 -0.0326,-0.0577 -0.0216,-0.15692 -0.016,-0.20257 h 5.3e-4 c 0.002,0.002 0.003,0.003 0.005,0.004 0.002,0.072 0.005,0.13767 0.0109,0.19895 0.007,0.0121 0.0152,0.0222 0.0264,0.0274 0.0193,0.009 -0.0419,-0.0655 -0.0212,-0.0605 0.0883,0.0216 0.3049,0.18524 0.24701,0.11524 -0.11939,-0.14449 -0.19811,-0.22354 -0.26252,-0.2806 -5.3e-4,-0.0157 -0.002,-0.0271 -0.003,-0.0434 0,5.3e-4 -2.2e-4,0.0271 -0.003,0.0382 -0.2965,-0.25844 -0.0977,0.21766 -0.32091,-0.51625 10e-4,-0.42622 0.003,-0.85276 0.004,-1.27899 l 0.003,-0.7674 0.003,-0.74569 c 0.002,-0.45535 0.003,-0.91047 0.005,-1.36581 0.002,-0.47312 0.003,-0.94643 0.005,-1.41955 1.2e-4,-0.13041 5.3e-4,-0.26078 0.001,-0.39119 0.001,-0.15683 0.001,-0.31343 0.002,-0.47025 l 0.003,-0.8785 c 0.002,-0.16732 5.3e-4,-0.33498 0,-0.5023 9e-5,-0.0121 -0.003,-0.43646 0.0134,-0.4072 -0.035,-0.17437 -0.0747,-0.39103 -0.0191,-0.5576 0.0314,-0.0939 0.0735,-0.18355 0.11782,-0.27233 0.0268,-0.30107 0.27836,-0.45063 0.30127,-0.79272 0.15408,-0.52435 0.3025,-1.04901 0.51212,-1.54822 -0.0297,-0.16121 -0.0554,-0.32326 -0.0713,-0.48731 -0.12493,-1.05447 -0.25865,-2.1081 -0.41082,-3.158983 -0.0602,-0.300762 -0.0763,-0.350411 -0.11007,-0.694531 -0.002,-0.01905 -0.006,-0.04563 0.009,-0.05684 0.0141,-0.01019 0.0556,0.03044 0.0496,0.01394 -0.0284,-0.08402 -0.0829,-0.156268 -0.12454,-0.234611 -0.0366,-0.141986 -0.0734,-0.284342 -0.11007,-0.426328 0.002,-0.273746 5.3e-4,-0.192567 0.031,-0.467673 0.0167,-0.05088 -0.024,-0.187748 0.0217,-0.159681 0.008,0.0052 0.0157,0.01196 0.0238,0.01757 -0.19934,-0.322011 -0.21014,-0.480594 -0.1974,-0.841293 10e-4,-0.381505 0.003,-0.763129 0.004,-1.144632 l 0.003,-0.713134 c -0.52714,-0.02769 -1.04993,-0.05517 -1.58802,-0.0832 -4.14697,-0.237876 -8.29516,-0.458449 -12.4411,-0.71365 -7.61304,-0.468911 -10.05472,-0.763413 -17.32555,-1.063501 z m 31.83424,34.489368 c 0.10252,0.10899 0.35331,0.0818 0.6227,0.0444 -0.21843,-0.0316 -0.44804,-0.069 -0.6227,-0.0444 z m 0.6227,0.0444 c 0.14158,0.0205 0.27591,0.0365 0.38809,0.0326 v -0.0765 c -0.12422,0.007 -0.25737,0.0259 -0.38809,0.0439 z m -4.60592,12.61629 c 0.002,0.008 0.004,0.0173 0.006,0.0259 5.3e-4,0.002 5.3e-4,0.003 0.002,0.005 2.2e-4,-0.0102 8e-4,-0.0181 0.001,-0.0274 z M 93.783423,103.1875 c -0.0027,-0.008 -0.0052,-0.0175 -0.0088,-0.0202 -0.02349,-0.017 -0.05019,-0.0302 -0.07596,-0.0444 -5.3e-5,0.0614 1.29e-4,0.11949 -5.29e-4,0.19068 0.0463,-0.0411 0.0735,-0.0835 0.08526,-0.12609 z m -0.08475,-0.0646 c 5.5e-5,-0.0637 -0.0013,-0.12909 -0.0062,-0.185 -0.270151,-0.29461 -1.011992,-0.50984 -0.938962,-0.30489 0.08435,-0.0356 0.190659,0.0345 0.321945,0.26769 0.198872,0.0794 0.436663,0.11923 0.623217,0.2222 z m -0.692465,-1.43505 c -0.01598,-0.0283 -0.01794,-0.0307 -0.03979,-0.0703 0.0081,0.0326 0.01974,0.067 0.02635,0.0982 0.01188,-0.005 0.01463,-0.015 0.01344,-0.0279 z m -0.03979,-0.0703 c -0.0011,-0.004 -0.0021,-0.008 -0.0031,-0.0119 -0.0029,-0.002 -0.01492,-0.0199 -0.01138,-0.0134 0.0087,0.0159 0.0066,0.011 0.01447,0.0253 z m -1.379244,-9.362735 c 0.0016,0.0088 0.0029,0.0181 0.0047,0.02687 0.0016,0.0091 0.01767,0.01 0.02119,0.0186 0.0077,0.01905 0.01164,0.03943 0.01654,0.05943 0.0082,0.01482 0.01643,0.02971 0.02479,0.04444 0.01871,-0.01611 -0.03341,-0.102632 -0.06718,-0.149344 z m -0.692464,8.318355 v 0.0109 c 7.93e-4,0.004 0.0055,0.0107 0.0067,0.015 0.0019,-0.006 0.0038,-0.0115 0.0011,-0.016 -0.0034,-0.005 -0.0052,-0.007 -0.0078,-0.01 z m 0.932243,1.30121 c -0.0053,-0.004 -0.0075,0.0514 -0.0078,0.12247 0.0141,0.0133 0.01344,0.0128 0.03049,0.0284 -0.0057,-0.0433 -0.0087,-0.0716 -0.01601,-0.12351 -0.0024,-0.0171 -0.0048,-0.0259 -0.0067,-0.0274 z m -0.0083,0.13281 c 5.29e-4,0.10392 0.0071,0.24143 0.0217,0.30903 0.005,0.0231 0.02585,0.0548 0.04909,0.0863 -0.0024,-0.0645 -0.01588,-0.19142 -0.03979,-0.37362 -0.0011,1.9e-4 -0.01651,-0.0113 -0.03101,-0.0217 z m 1.392164,0.26407 c 7.93e-4,0.0197 1.56e-4,0.0414 0.0041,0.0558 0.03669,-0.006 0.01836,-0.0316 -0.0041,-0.0558 z m 46.040073,1.51825 c 0.007,-0.015 -0.0259,0.0245 -0.0269,0.0408 -2.6e-4,0.005 -1.3e-4,0.0103 -5.3e-4,0.0155 0.009,-0.0189 0.019,-0.0373 0.0274,-0.0563 z m -47.116494,0.47852 c -0.01021,0.005 -0.02005,0.0101 -0.02997,0.015 -0.02442,0.0121 -0.05497,0.0238 -0.08682,0.0357 0.03883,-0.0264 0.07916,-0.045 0.116789,-0.0507 z m 48.225984,2.2841 5.3e-4,5.3e-4 c -1.1e-4,0.0324 -5.3e-4,0.065 -5.3e-4,0.0971 -0.001,0.15685 -0.001,0.31393 -0.002,0.47077 -1.2e-4,0.13042 -5.3e-4,0.26077 -0.001,0.39119 -2.7e-4,0.0627 -2.3e-4,0.12542 -5.3e-4,0.18811 0.0359,-0.17354 0.077,-0.3523 0.14728,-0.79944 0.0205,-0.1306 0.029,-0.20965 0.0444,-0.31729 -0.0539,-0.007 -0.10689,-0.0155 -0.15865,-0.0279 -0.01,-7.9e-4 -0.0198,-0.002 -0.0294,-0.003 z m -0.36741,6.04304 v 5.3e-4 c -0.003,-10e-4 0.003,0.004 0.0222,0.0191 0.0632,0.0495 0.11973,0.0991 0.17622,0.14883 0,-8e-4 -1e-5,-0.002 0,-0.003 -0.093,-0.0901 -0.18977,-0.16178 -0.19844,-0.16536 z m 0.32091,9.01237 c -0.002,0.004 -0.007,0.0122 -0.009,0.016 -0.009,0.0241 -0.006,0.0771 -0.002,0.11006 0.004,-0.008 0.007,-0.0137 0.0108,-0.0227 0.002,-0.0344 0.002,-0.0688 0,-0.10336 z m -0.69143,2.36161 c -0.01,0.01 -0.0194,0.0205 -0.0295,0.0295 -0.007,0.007 0.0187,0.0307 0.0207,0.0207 0.004,-0.0165 0.006,-0.0335 0.009,-0.0501 z m 0.93379,1.68931 c -0.11254,0.0164 -0.24792,0.0575 -0.39016,0.10335 0.13087,0.0433 0.26483,0.0877 0.39016,0.11989 z m -1.07229,3.44578 c -0.0714,0.34832 -0.12465,0.70263 -0.25218,1.03663 -0.0652,0.23404 -0.13075,0.4682 -0.19585,0.70228 -0.0323,0.11625 -0.0493,0.23782 -0.0966,0.34882 -0.0207,0.0484 -0.0968,0.067 -0.10283,0.11937 -0.0133,0.12141 0.0536,0.24067 0.0506,0.36277 -0.007,0.31383 -0.0685,0.42193 -0.16898,0.6873 -0.0554,0.19897 -0.12018,0.39546 -0.16588,0.59686 -0.19462,0.85677 -0.28895,1.7364 -0.50953,2.58847 -0.081,0.3525 -0.1072,0.7122 -0.0739,1.07436 0.0303,0.40041 0.002,0.19106 0.0915,0.62528 0.0422,0.55665 -0.006,1.19033 -0.062,1.7353 -0.10418,1.01537 -0.12232,1.20075 -0.20619,1.58646 0.20258,0.073 0.38441,0.1542 0.26768,0.15141 0.0237,0.0131 0.047,0.0267 0.0703,0.0408 0.42934,0.11329 0.35222,0.20106 0.58343,0.36742 -0.12732,0.0264 0.18118,0.0312 0.27698,0.0455 0.0599,0.009 0.11899,0.0197 0.17829,0.032 0.0384,-0.11665 0.0793,-0.23263 0.12299,-0.34726 0.008,-0.0214 0.0125,-0.0312 0.0202,-0.0506 0.003,-0.0157 0.007,-0.0352 0.009,-0.046 0.014,-0.0576 0.0392,-0.11153 0.0589,-0.16743 0.05,-0.12449 0.1154,-0.25881 0.16847,-0.38964 0.006,-0.036 0.006,-0.0387 0.016,-0.0941 -0.07,-0.30878 0.13307,-0.71778 0.26097,-1.05782 0.007,-0.17884 0.0204,-0.35413 0.046,-0.52245 0.006,-0.0392 0.0161,-0.0778 0.0274,-0.11575 -0.16797,0.0146 -0.36688,-0.0366 -0.62064,-0.12919 -0.55676,-0.754 -0.49699,-0.47216 -0.49299,-1.10795 0.002,-0.13469 0.006,-0.2689 0.009,-0.40359 1.9e-4,-0.0231 -0.0145,-0.0868 10e-4,-0.0698 0.0319,0.0349 0.0623,0.17805 0.0553,0.13126 -0.0106,-0.073 -0.0445,-0.14096 -0.0667,-0.21136 -0.0264,-0.24562 -0.0154,-0.45196 0.0346,-0.69815 0.01,-0.0472 0.0286,-0.0925 0.0429,-0.13849 0.01,-0.0186 0.0256,-0.0352 0.0294,-0.0558 0.0148,-0.0678 0.0184,-0.13739 0.0274,-0.20619 0.038,-0.11978 0.0755,-0.28873 0.11266,-0.34623 -0.0412,-0.19199 -0.0656,-0.36084 -0.0103,-0.27492 0.012,-0.14352 0.0136,-0.28824 0.0362,-0.43047 0.0395,-0.2481 0.159,-0.5282 0.3235,-0.73329 0.0278,-0.17726 0.0589,-0.33277 0.0899,-0.47955 2.6e-4,-0.10802 7.9e-4,-0.216 10e-4,-0.32401 0.001,-0.19489 5.3e-4,-0.39009 0.002,-0.58498 0.001,-0.27175 0.002,-0.54318 0.003,-0.81494 0,-0.23868 10e-4,-0.47755 0.002,-0.71623 0.001,-0.19791 0.001,-0.39587 0.002,-0.59377 l 0.003,-0.90175 c 1.8e-4,-0.0735 2.4e-4,-0.14711 5.2e-4,-0.22066 z m -1.92494,2.43551 c -0.004,0.0424 -0.008,0.0848 -0.0129,0.12713 0.005,-0.0126 0.009,-0.0252 0.0139,-0.0377 -0.001,-0.0207 -2.7e-4,-0.0623 -0.001,-0.0894 z m 2.57607,5.9061 c -0.002,0.003 -0.005,0.007 -0.006,0.01 0.002,0.0235 0.002,0.0423 0.004,0.0615 2.2e-4,-5.3e-4 8e-4,-5.3e-4 0.001,-0.001 10e-4,-0.0234 0.002,-0.0468 0.002,-0.0703 z m -0.86145,0.1664 c -0.006,0.009 -0.013,0.0173 -0.0191,0.0264 -0.0356,0.0526 0.0206,0.25316 0.0212,0.18966 5.3e-4,-0.072 -5.3e-4,-0.14408 -0.002,-0.21601 z m -4.13205,0.62529 c -1.9e-4,0.002 -2.4e-4,0.003 -5.3e-4,0.005 2.7e-4,7e-5 8e-4,-6e-5 0.001,0 0.005,8e-4 0.0195,0.005 0.015,0.003 -0.007,-0.004 -0.009,-0.004 -0.0155,-0.008 z m -0.002,0.0227 c -0.001,0.01 -0.004,0.0185 -0.005,0.0279 0.0153,0.003 0.0304,0.005 0.046,0.009 -0.002,-0.01 -0.005,-0.0199 -0.007,-0.03 h -5.3e-4 c -0.008,-0.001 -0.0237,-0.005 -0.0336,-0.007 z m -0.0274,0.1385 c -0.001,0.006 -0.003,0.0118 -0.004,0.0176 0.007,0.009 0.0124,0.0172 0.0196,0.0269 -0.008,-0.0217 -0.009,-0.0269 -0.0155,-0.0444 z m 0.46095,0.22789 c 0.0194,0.0476 0.0437,0.10619 0.0853,0.20412 0.0157,-0.0371 0.0336,-0.0714 0.0548,-0.10283 -0.004,-0.017 -0.008,-0.0354 -0.0124,-0.0517 -0.0391,-0.0171 -0.0813,-0.0332 -0.12764,-0.0496 z m -0.003,0.0279 c 2e-5,7.9e-4 4e-5,0.002 0,0.003 0.007,0.027 0.0121,0.0546 0.0171,0.0832 0.009,0.0124 0.0193,0.0257 0.0289,0.0388 -0.0145,-0.0422 -0.0292,-0.084 -0.046,-0.12454 z m -0.40462,0.005 c -0.005,5.3e-4 -0.0103,0.001 -0.015,0.001 0.0228,0.0589 0.0486,0.11593 0.0827,0.16847 0.0276,0.0426 0.0342,0.005 0.0284,-0.0739 -0.0294,-0.0276 -0.0617,-0.0602 -0.0961,-0.0956 z m 0.45113,0.12092 c 0.009,0.0268 0.0189,0.0536 0.0279,0.0806 0.001,-8e-4 0.003,-8e-4 0.004,-0.002 0.003,-0.008 0.005,-0.0169 0.008,-0.0248 -0.014,-0.0189 -0.0266,-0.0357 -0.0398,-0.0537 z m -1.51928,0.0744 c 0.008,0.0427 0.0156,0.0857 0.0264,0.12712 0.054,0.0333 0.12064,0.0815 0.20412,0.15038 0.008,0.002 0.012,0.003 0.0202,0.005 0.0137,0.004 0.0244,0.006 0.0372,0.009 -0.0132,-0.0416 -0.0295,-0.0914 -0.0486,-0.14883 -0.085,-0.0252 -0.16676,-0.0729 -0.23927,-0.14262 z m 0.23047,0.2775 c -0.0778,-0.0216 -0.13134,-0.036 -0.17104,-0.0475 0.0129,0.0324 0.0277,0.064 0.0465,0.0935 0.0319,0.0501 0.15162,0.0968 0.22893,0.11317 -0.008,-0.0238 -0.0169,-0.051 -0.0315,-0.0977 -0.0252,-0.022 -0.0502,-0.0428 -0.0729,-0.0615 z m -0.17104,-0.0475 c -0.0132,-0.0332 -0.0239,-0.0676 -0.0331,-0.10284 -0.0577,-0.0356 -0.10146,-0.0556 -0.13384,-0.0661 0.0532,0.11536 0.0662,0.13941 0.16692,0.16898 z m 0.51883,-0.10336 c -0.036,0.0144 -0.0729,0.0244 -0.11007,0.0305 0.0181,0.055 0.0316,0.11231 0.045,0.17001 0.1212,-0.006 0.12216,-0.0856 0.0651,-0.20051 z m -0.32918,0.0186 -5.3e-4,5.3e-4 c 0.0303,0.052 0.0599,0.10477 0.0884,0.15813 0.003,5.3e-4 0.006,0.002 0.009,0.003 -0.006,-0.0521 -0.0102,-0.10078 -0.0129,-0.14521 -0.0284,-0.003 -0.0563,-0.008 -0.0842,-0.016 z m 0.30747,0.35192 v 5.3e-4 c 0.0146,0.0485 0.0315,0.0957 0.0548,0.13901 -0.027,-0.01 -0.0547,-0.0191 -0.0816,-0.0284 0.004,0.005 0.008,0.0102 0.0124,0.015 0.016,0.0178 0.0518,0.0335 0.0894,0.0465 h 5.3e-4 c -0.007,-0.0109 -0.0139,-0.0216 -0.0202,-0.0331 0.0309,0.0108 0.0616,0.0229 0.092,0.0351 -0.007,-0.0348 -5.3e-4,-0.0723 0.0114,-0.11059 -0.0654,-0.0333 -0.11616,-0.0522 -0.15865,-0.0641 z m 0.14728,0.17467 c 0.001,0.006 0.003,0.0128 0.006,0.0191 0.0377,0.008 0.0639,0.01 0.0372,-0.002 -0.014,-0.006 -0.0286,-0.0111 -0.0429,-0.017 z m 0.006,0.0191 c -0.0238,-0.005 -0.049,-0.0112 -0.078,-0.0212 0.0114,0.0178 0.0232,0.0355 0.0372,0.0517 0.0195,0.0226 0.0546,0.0425 0.0966,0.0594 -0.0153,-0.021 -0.03,-0.0424 -0.0439,-0.0646 -0.005,-0.008 -0.009,-0.0166 -0.0119,-0.0253 z m 0.0522,-0.10542 v 5.2e-4 c -0.007,0.0815 -0.002,0.14588 0.0274,0.20413 0.15598,0.0553 0.37926,0.0686 0.29456,0.006 -0.1304,-0.0958 -0.23581,-0.16288 -0.32194,-0.21033 z m 0.29404,0.43098 c 0.0239,0.013 0.0495,0.0265 0.077,0.0403 0.009,0.005 0.0224,0.008 0.0367,0.0109 -0.004,-0.0119 -0.008,-0.0237 -0.0108,-0.0357 -0.0417,-0.007 -0.0718,-0.0113 -0.10283,-0.0155 z m 5.3175,1.7601 c -0.001,0.002 -0.003,0.003 -0.004,0.005 -0.001,0.004 -0.003,0.01 -0.004,0.0145 0.002,-0.003 0.001,-5.3e-4 0.004,-0.005 0.003,-0.0104 0.003,-0.008 0.004,-0.015 z m -2.87218,0.32711 c -2.6e-4,0.003 -7.9e-4,0.006 -0.001,0.009 0.0219,0.005 0.0367,0.008 0.0207,0 -0.009,-0.004 -0.0115,-0.005 -0.0196,-0.009 z m -0.003,0.0367 v 5.3e-4 c -0.0255,0.25117 -0.0572,0.48362 -0.0754,0.63872 -0.0284,0.23995 -0.0627,0.47912 -0.0971,0.7183 5.3e-4,0.004 5.3e-4,0.007 0.001,0.0109 h 2.50889 c -0.0323,-0.0368 -0.0668,-0.0778 -0.10128,-0.12196 -0.0493,-0.0113 -0.0925,-0.0247 -0.12506,-0.0413 0.0354,0.009 0.0712,0.0148 0.10749,0.0191 0.006,0.008 0.0116,0.0141 0.0176,0.0217 0.24353,0.0558 0.62428,0.0506 0.49196,0.0171 -0.16489,-0.0416 -0.34085,-0.0194 -0.50953,-0.0393 -0.054,-0.0697 -0.10347,-0.13539 -0.12248,-0.15865 -0.073,0.0602 -0.0522,0.10591 0.0145,0.14005 -0.22569,-0.0596 -0.3781,-0.37916 -0.47336,-0.60979 -0.0637,-0.008 -0.12747,-0.017 -0.1912,-0.0253 -0.0639,-0.0298 -0.12343,-0.0718 -0.19172,-0.0894 -0.0166,-0.004 -0.0256,0.026 -0.0424,0.0289 -0.0366,0.007 -0.0747,0.008 -0.11162,0.002 -0.35585,-0.0578 -0.30875,-0.055 -0.59118,-0.17983 -0.15462,-0.0887 -0.294,-0.18848 -0.42064,-0.31006 -0.0317,-0.004 -0.0602,-0.0118 -0.0884,-0.0217 z m 0.24236,0.0341 c 0.071,0.0736 -0.022,0.0536 0.33693,0.0351 -0.14826,-0.0219 -0.25389,-0.0301 -0.33693,-0.0351 z m 1.33739,0.45734 c -8e-4,1.6e-4 -0.002,2.7e-4 -0.002,0.002 0.008,0.0363 0.0269,0.0635 0.0522,0.0848 -0.012,-0.0294 -0.0235,-0.0574 -0.0336,-0.0827 -0.005,0 -0.0127,-0.004 -0.0165,-0.004 z m 0.0791,0.10645 c 0.0907,0.0519 0.23429,0.0478 0.32711,0.0429 -0.10901,-0.0143 -0.2181,-0.0286 -0.32711,-0.0429 z m 1.30225,0.75345 c -0.0308,0.006 -0.0575,0.0105 -0.0915,0.017 h 0.0915 z" />
    </clipPath>
  </defs>
  <g
     inkscape:label="Layer 1"
     inkscape:groupmode="layer"
     id="layer1">
    <rect
       style="opacity:0.916107;fill:#000000;stroke:#000000;stroke-width:0.141633"
       id="rect59489"
       width="7.4150023"
       height="51.253368"
       x="182.81107"
       y="47.753845"
       transform="matrix(0.78663356,0.61742015,-0.83626784,0.54832116,0,0)" />
    <rect
       style="opacity:0.916107;fill:#000000;stroke:#000000;stroke-width:0.141633"
       id="rect60625"
       width="7.4150023"
       height="51.253368"
       x="192.13942"
       y="46.979481"
       transform="matrix(0.78663356,0.61742015,-0.83626784,0.54832116,0,0)" />
    <rect
       style="opacity:0.916107;fill:#000000;stroke:#000000;stroke-width:0.141633"
       id="rect60627"
       width="7.4150023"
       height="51.253368"
       x="202.75682"
       y="46.488434"
       transform="matrix(0.78663356,0.61742015,-0.83626784,0.54832116,0,0)" />
    <rect
       style="opacity:0.916107;fill:#000000;stroke:#000000;stroke-width:0.141633"
       id="rect60629"
       width="7.4150023"
       height="51.253368"
       x="213.10602"
       y="46.352726"
       transform="matrix(0.78663356,0.61742015,-0.83626784,0.54832116,0,0)" />
    <rect
       style="opacity:0.916107;fill:#000000;stroke:#000000;stroke-width:0.13843"
       id="rect60677"
       width="6.6201"
       height="47.920265"
       x="61.00877"
       y="167.15898" />
    <rect
       style="opacity:0.916107;fill:#000000;stroke:#000000;stroke-width:0.138804"
       id="rect60781"
       width="6.8122973"
       height="42.585346"
       x="68.994354"
       y="172.4939" />
    <rect
       style="opacity:0.916107;fill:#000000;stroke:#000000;stroke-width:0.137877"
       id="rect60887"
       width="6.2267737"
       height="36.299213"
       x="77.756989"
       y="178.78004" />
    <rect
       style="opacity:0.916107;fill:#000000;stroke:#000000;stroke-width:0.152785"
       id="rect60889"
       width="8.7106819"
       height="29.971188"
       x="86.020317"
       y="185.10175" />
    <rect
       style="opacity:0.916107;fill:#000000;stroke:#000000;stroke-width:0.137877"
       id="rect61037"
       width="31.281818"
       height="76.023575"
       x="103.87032"
       y="139.05568" />
    <path
       style="fill:#ffffff;stroke:#000000;stroke-width:0.264583px;stroke-linecap:butt;stroke-linejoin:miter;stroke-opacity:1"
       d="M 93.002901,105.56438 140.42194,143.08794 140.03171,89.914962 91.043515,88.230426 Z"
       id="path64097"
       clip-path="url(#clipPath64343)"
       transform="matrix(0.77430712,0,0,0.70595157,31.739545,64.609692)" />
    <ellipse
       style="opacity:0.916107;fill:none;stroke:#010703;stroke-width:0.864224;stroke-miterlimit:4;stroke-dasharray:none;stroke-opacity:1"
       id="path64577"
       cx="99.92543"
       cy="180.54469"
       rx="75.164139"
       ry="56.946098" />
    <text
       xml:space="preserve"
       id="text79896"
       style="font-style:normal;font-weight:normal;font-size:10.5833px;line-height:1.25;font-family:sans-serif;white-space:pre;fill:#000000;fill-opacity:1;stroke:none"
       transform="matrix(0.91281658,-0.01761273,0.01820684,1.0300551,10.742178,-4.5222716)"><textPath
         xlink:href="#path87110"
         id="textPath87479"><tspan
           id="tspan79900">Björn Þór</tspan></textPath></text>
    <path
       style="opacity:0;fill:none;stroke:#000000;stroke-width:0.106002px;stroke-linecap:butt;stroke-linejoin:miter;stroke-opacity:1"
       d="m 121.96785,152.19142 c 3.91995,-1.56065 7.83983,-3.12128 10.90429,4.94111 3.06446,8.0624 5.27362,25.74787 7.48278,43.43342"
       id="path87110"
       sodipodi:nodetypes="csc"
       inkscape:original-d="m 121.96785,152.19142 c 3.91991,-1.56075 7.8398,-3.12135 11.75961,-4.68187 2.20921,17.68537 4.41841,35.37084 6.62746,53.0564"
       inkscape:path-effect="#path-effect87112" />
  </g>
</svg>
