<?xml version="1.0" encoding="UTF-8" standalone="no"?>
<!-- Created with Inkscape (http://www.inkscape.org/) -->

<svg
   width="210mm"
   height="297mm"
   viewBox="0 0 210 297"
   version="1.1"
   id="svg101"
   inkscape:version="1.1 (c68e22c387, 2021-05-23)"
   sodipodi:docname="Tabbed box.svg"
   xmlns:inkscape="http://www.inkscape.org/namespaces/inkscape"
   xmlns:sodipodi="http://sodipodi.sourceforge.net/DTD/sodipodi-0.dtd"
   xmlns="http://www.w3.org/2000/svg"
   xmlns:svg="http://www.w3.org/2000/svg">
  <sodipodi:namedview
     id="namedview103"
     pagecolor="#ffffff"
     bordercolor="#666666"
     borderopacity="1.0"
     inkscape:pageshadow="2"
     inkscape:pageopacity="0.0"
     inkscape:pagecheckerboard="0"
     inkscape:document-units="mm"
     showgrid="false"
     inkscape:zoom="0.69664703"
     inkscape:cx="396.90114"
     inkscape:cy="331.5883"
     inkscape:window-width="1920"
     inkscape:window-height="986"
     inkscape:window-x="-11"
     inkscape:window-y="-11"
     inkscape:window-maximized="1"
     inkscape:current-layer="layer1" />
  <defs
     id="defs98" />
  <g
     inkscape:label="Layer 1"
     inkscape:groupmode="layer"
     id="layer1">
    <g
       id="panel2645"
       transform="matrix(0.62904453,0,0,0.64674708,27.396544,21.061119)">
      <path
         style="fill:none;stroke:#000000;stroke-width:1"
         d="m 28.4,97.9 h 6.8143 v -3.1 h 6.2 v 3.1 h 6.7143 v -3.1 h 6.2 v 3.1 h 6.7143 v -3.1 h 6.2 v 3.1 h 6.7142 v -3.1 h 6.2 v 3.1 h 6.7143 v -3.1 h 6.2 v 3.1 h 6.7143 v -3.1 h 6.2003 v 3.1 h 6.814"
         id="path2643" />
      <path
         style="fill:none;stroke:#000000;stroke-width:1"
         d="m 112.8,97.9 v 7.2 h -3.1 v 5.8 h 3.1 v 7.2"
         id="path2645" />
      <path
         style="fill:none;stroke:#000000;stroke-width:1"
         d="M 112.8,118.1 H 28.4"
         id="path2647"
         sodipodi:nodetypes="cc" />
      <path
         style="fill:none;stroke:#000000;stroke-width:1"
         d="m 28.4,118.1 v -7.2 h 3.1 v -5.8 h -3.1 v -7.2"
         id="path2649" />
    </g>
    <g
       id="panel7865"
       transform="matrix(0.62904453,0,0,0.64674708,27.396544,21.061119)">
      <path
         style="fill:none;stroke:#000000;stroke-width:1"
         d="m 4.1,31.5 h 7 v -3.1 h 6.2 v 3.1 h 7"
         id="path2652" />
      <path
         style="fill:none;stroke:#000000;stroke-width:1"
         d="m 24.3,31.5 v 5.08 h 3.1 v 6.2 h -3.1 v 8.08 h 3.1 v 6.2 h -3.1 v 8.08 h 3.1 v 6.2 h -3.1 v 8.08 h 3.1 v 6.2 h -3.1 v 5.08"
         id="path2654" />
      <path
         style="fill:none;stroke:#000000;stroke-width:1"
         d="m 24.3,90.7 h -7 v 3.1 h -6.2 v -3.1 h -7"
         id="path2656" />
      <path
         style="fill:none;stroke:#000000;stroke-width:1"
         d="M 4.1,90.7 V 85.62 H 1 v -6.2 H 4.1 V 42.78 H 1 v -6.2 H 4.1 V 31.5"
         id="path2658"
         sodipodi:nodetypes="cccccccccc" />
    </g>
    <g
       id="panel8266"
       transform="matrix(0.62904453,0,0,0.64674708,27.396544,21.061119)">
      <path
         style="fill:none;stroke:#000000;stroke-width:1"
         d="m 28.4,28.4 h 7.0143 v 3.1 h 5.8 v -3.1 h 7.1143 v 3.1 h 5.8 v -3.1 h 7.1143 v 3.1 h 5.8 v -3.1 h 7.1142 v 3.1 h 5.8 v -3.1 h 7.1143 v 3.1 h 5.8 v -3.1 h 7.1143 v 3.1 h 5.8003 v -3.1 h 7.014"
         id="path2661" />
      <path
         style="fill:none;stroke:#000000;stroke-width:1"
         d="m 112.8,28.4 v 8.38 h -3.1 v 5.8 h 3.1 v 8.48 h -3.1 v 5.8 h 3.1 v 8.48 h -3.1 v 5.8 h 3.1 v 8.48 h -3.1 v 5.8 h 3.1 v 8.38"
         id="path2663" />
      <path
         style="fill:none;stroke:#000000;stroke-width:1"
         d="m 112.8,93.8 h -7.014 v -3.1 h -5.8003 v 3.1 h -7.1143 v -3.1 h -5.8 v 3.1 h -7.1143 v -3.1 h -5.8 v 3.1 h -7.1142 v -3.1 h -5.8 v 3.1 h -7.1143 v -3.1 h -5.8 v 3.1 h -7.1143 v -3.1 h -5.8 v 3.1 H 28.4"
         id="path2665" />
      <path
         style="fill:none;stroke:#000000;stroke-width:1"
         d="m 28.4,93.8 v -8.38 h 3.1 v -5.8 h -3.1 v -8.48 h 3.1 v -5.8 h -3.1 v -8.48 h 3.1 v -5.8 h -3.1 v -8.48 h 3.1 v -5.8 H 28.4 V 28.4"
         id="path2667" />
    </g>
    <g
       id="panel1938"
       transform="matrix(0.62904453,0,0,0.64674708,27.396544,21.061119)">
      <path
         style="fill:none;stroke:#000000;stroke-width:1"
         d="m 116.9,31.5 h 7 v -3.1 h 6.2 v 3.1 h 7"
         id="path2670" />
      <path
         style="fill:none;stroke:#000000;stroke-width:1"
         d="m 137.1,31.5 v 5.08 h 3.1 v 6.2 h -3.1 v 36.64 h 3.1 v 6.2 h -3.1 v 5.08"
         id="path2672"
         sodipodi:nodetypes="cccccccccc" />
      <path
         style="fill:none;stroke:#000000;stroke-width:1"
         d="m 137.1,90.7 h -7 v 3.1 h -6.2 v -3.1 h -7"
         id="path2674" />
      <path
         style="fill:none;stroke:#000000;stroke-width:1"
         d="m 116.9,90.7 v -5.08 h -3.1 v -6.2 h 3.1 v -8.08 h -3.1 v -6.2 h 3.1 v -8.08 h -3.1 v -6.2 h 3.1 v -8.08 h -3.1 v -6.2 h 3.1 V 31.5"
         id="path2676" />
    </g>
    <g
       id="panel4020"
       transform="matrix(0.62904453,0,0,0.64674708,13.546615,85.152046)">
      <path
         style="fill:none;stroke:#000000;stroke-width:1"
         d="m 167.8388,-71.363808 h 89.69166"
         id="path2679"
         sodipodi:nodetypes="cc" />
      <path
         style="fill:none;stroke:#000000;stroke-width:1"
         d="m 257.53046,-71.363808 v 8.38 h -5.74583 v 5.8 h 5.74583 v 8.48 h -5.74583 v 20.08 h 5.74583 v 8.48 h -5.74583 v 5.8 h 5.74583 v 8.3799995"
         id="path2681"
         sodipodi:nodetypes="cccccccccccccc" />
      <path
         style="fill:none;stroke:#000000;stroke-width:1"
         d="m 257.53046,-5.9638085 h -89.1625"
         id="path2683"
         sodipodi:nodetypes="cc" />
      <path
         style="fill:none;stroke:#000000;stroke-width:1"
         d="m 167.8388,-5.9638085 v -8.3799995 h 5.74583 v -5.8 h -5.74583 v -8.48 h 5.74583 v -20.08 h -5.74583 v -8.48 h 5.74583 v -5.8 h -5.74583 v -8.38"
         id="path2685"
         sodipodi:nodetypes="cccccccccccccc" />
    </g>
    <g
       id="panel9588"
       transform="matrix(0.62904453,0,0,0.64674708,27.396544,21.061119)">
      <path
         style="fill:none;stroke:#000000;stroke-width:1"
         d="m 28.4,4.1 h 84.4"
         id="path2688"
         sodipodi:nodetypes="cc" />
      <path
         style="fill:none;stroke:#000000;stroke-width:1"
         d="m 112.8,4.1 v 7.2 h -3.1 v 5.8 h 3.1 v 7.2"
         id="path2690" />
      <path
         style="fill:none;stroke:#000000;stroke-width:1"
         d="m 112.8,24.3 h -6.814 v 3.1 h -6.2003 v -3.1 h -6.7143 v 3.1 h -6.2 v -3.1 h -6.7143 v 3.1 h -6.2 v -3.1 h -6.7142 v 3.1 h -6.2 v -3.1 h -6.7143 v 3.1 h -6.2 v -3.1 h -6.7143 v 3.1 h -6.2 V 24.3 H 28.4"
         id="path2692" />
      <path
         style="fill:none;stroke:#000000;stroke-width:1"
         d="m 28.4,24.3 v -7.2 h 3.1 V 11.3 H 28.4 V 4.1"
         id="path2694" />
    </g>
    <ellipse
       style="opacity:0;fill:#ff0000;stroke:#000000;stroke-width:0.16876"
       id="path5753"
       cx="123.6395"
       cy="30.320444"
       rx="6.0805416"
       ry="2.8511026" />
    <rect
       style="fill:none;stroke:#000000;stroke-width:0.16876"
       id="rect6353"
       width="8.1775789"
       height="7.1142182"
       x="31.940071"
       y="68.715744" />
    <rect
       style="fill:none;stroke:#000000;stroke-width:0.16876"
       id="rect6617"
       width="7.5485344"
       height="9.0544596"
       x="32.569118"
       y="49.33786" />
    <rect
       style="fill:none;stroke:#000000;stroke-width:0.16876"
       id="rect7398"
       width="40.040234"
       height="9.0178623"
       x="127.07484"
       y="43.779613" />
    <rect
       style="fill:none;stroke:#000000;stroke-width:0.16876"
       id="rect7562"
       width="40.040234"
       height="9.0178623"
       x="127.42024"
       y="66.706276" />
    <g
       aria-label="Bjössi "
       transform="matrix(0.71685551,0,0,0.56752402,27.396544,21.061119)"
       id="text9568"
       style="font-size:13.3704px;line-height:1.25;fill:#ff0000;stroke-width:0.33426">
      <path
         d="m 157.42936,68.288474 q 0,0.724665 -0.2742,1.279589 -0.2742,0.554924 -0.73772,0.913992 -0.5484,0.430882 -1.20778,0.61368 -0.65285,0.182799 -1.66477,0.182799 h -3.44706 v -9.72096 h 2.87908 q 1.06415,0 1.59296,0.07834 0.52881,0.07834 1.01192,0.326426 0.53533,0.280726 0.77689,0.724665 0.24155,0.437411 0.24155,1.051091 0,0.692023 -0.35254,1.181662 -0.35254,0.48311 -0.9401,0.776893 v 0.05223 q 0.9858,0.202384 1.55379,0.868293 0.56798,0.65938 0.56798,1.6713 z m -2.174,-4.380634 q 0,-0.35254 -0.11751,-0.594095 -0.11752,-0.241555 -0.37866,-0.391711 -0.30684,-0.17627 -0.74425,-0.215441 -0.43741,-0.0457 -1.08373,-0.0457 h -1.54073 v 2.807262 h 1.6713 q 0.60715,0 0.96622,-0.05876 0.35907,-0.06529 0.66591,-0.26114 0.30684,-0.195856 0.43088,-0.502696 0.13057,-0.313369 0.13057,-0.737722 z m 0.82912,4.432862 q 0,-0.587567 -0.17627,-0.933578 -0.17627,-0.346011 -0.63979,-0.587566 -0.31337,-0.163213 -0.76384,-0.208913 -0.44394,-0.05223 -1.08373,-0.05223 h -2.03037 v 3.616798 h 1.71047 q 0.84871,0 1.39057,-0.08487 0.54187,-0.0914 0.88788,-0.326426 0.3656,-0.254612 0.53534,-0.581038 0.16974,-0.326425 0.16974,-0.842177 z"
         id="path9916"
         style="fill:#ff0000" />
      <path
         d="m 161.43787,62.765349 h -1.38405 v -1.27306 h 1.38405 z m -0.0784,8.689455 q 0,1.279589 -0.65285,1.932441 -0.65285,0.652851 -1.74964,0.652851 -0.26114,0 -0.69202,-0.05223 -0.42436,-0.05223 -0.71161,-0.13057 v -1.168605 h 0.0653 q 0.1828,0.07181 0.48964,0.163213 0.31337,0.0914 0.60715,0.0914 0.47006,0 0.75731,-0.13057 0.28726,-0.13057 0.43088,-0.391711 0.14363,-0.26114 0.1828,-0.633266 0.0457,-0.365597 0.0457,-0.894406 v -5.875665 h -1.52114 v -1.031505 h 2.7485 z"
         id="path9918"
         style="fill:#ff0000" />
      <path
         d="m 169.98369,67.635622 q 0,1.782285 -0.91399,2.81379 -0.91399,1.031506 -2.44819,1.031506 -1.54726,0 -2.46125,-1.031506 -0.90747,-1.031505 -0.90747,-2.81379 0,-1.782285 0.90747,-2.81379 0.91399,-1.038034 2.46125,-1.038034 1.5342,0 2.44819,1.038034 0.91399,1.031505 0.91399,2.81379 z m -1.26653,0 q 0,-1.416688 -0.55492,-2.102182 -0.55493,-0.692023 -1.54073,-0.692023 -0.99887,0 -1.55379,0.692023 -0.5484,0.685494 -0.5484,2.102182 0,1.370988 0.55493,2.082597 0.55492,0.705079 1.54726,0.705079 0.97927,0 1.5342,-0.698551 0.56145,-0.70508 0.56145,-2.089125 z m -0.0979,-4.870273 h -1.29917 v -1.27306 h 1.29917 z m -2.69627,0 h -1.29918 v -1.27306 h 1.29918 z"
         id="path9920"
         style="fill:#ff0000" />
      <path
         d="m 177.09325,69.176352 q 0,0.998863 -0.82913,1.638657 -0.82259,0.639795 -2.25233,0.639795 -0.80954,0 -1.48851,-0.189327 -0.67243,-0.195856 -1.12943,-0.424354 v -1.377516 h 0.0653 q 0.58103,0.43741 1.29264,0.698551 0.71161,0.254612 1.36446,0.254612 0.80954,0 1.26653,-0.261141 0.457,-0.26114 0.457,-0.822593 0,-0.430882 -0.24808,-0.652851 -0.24809,-0.22197 -0.95317,-0.378654 -0.26114,-0.05876 -0.68549,-0.137099 -0.41783,-0.07834 -0.76384,-0.169742 -0.95969,-0.254612 -1.36446,-0.74425 -0.39824,-0.496168 -0.39824,-1.214304 0,-0.450468 0.1828,-0.848707 0.18933,-0.39824 0.56798,-0.711609 0.3656,-0.30684 0.92705,-0.48311 0.56798,-0.182798 1.26653,-0.182798 0.65286,0 1.31876,0.163213 0.67244,0.156684 1.11638,0.385182 v 1.312232 h -0.0653 q -0.47006,-0.346012 -1.14249,-0.581038 -0.67244,-0.241555 -1.31876,-0.241555 -0.67244,0 -1.13597,0.26114 -0.46352,0.254613 -0.46352,0.763837 0,0.450467 0.28073,0.678965 0.27419,0.228499 0.88787,0.372126 0.33949,0.07834 0.75731,0.156684 0.42435,0.07834 0.70508,0.143628 0.85524,0.195855 1.31876,0.672437 0.46353,0.48311 0.46353,1.279589 z"
         id="path9922"
         style="fill:#ff0000" />
      <path
         d="m 184.05917,69.176352 q 0,0.998863 -0.82912,1.638657 -0.82259,0.639795 -2.25234,0.639795 -0.80953,0 -1.4885,-0.189327 -0.67244,-0.195856 -1.12943,-0.424354 v -1.377516 h 0.0653 q 0.58104,0.43741 1.29265,0.698551 0.71161,0.254612 1.36446,0.254612 0.80954,0 1.26653,-0.261141 0.457,-0.26114 0.457,-0.822593 0,-0.430882 -0.24809,-0.652851 -0.24808,-0.22197 -0.95316,-0.378654 -0.26114,-0.05876 -0.68549,-0.137099 -0.41783,-0.07834 -0.76384,-0.169742 -0.95969,-0.254612 -1.36446,-0.74425 -0.39824,-0.496168 -0.39824,-1.214304 0,-0.450468 0.1828,-0.848707 0.18933,-0.39824 0.56798,-0.711609 0.3656,-0.30684 0.92705,-0.48311 0.56798,-0.182798 1.26653,-0.182798 0.65285,0 1.31876,0.163213 0.67244,0.156684 1.11638,0.385182 v 1.312232 h -0.0653 q -0.47005,-0.346012 -1.14249,-0.581038 -0.67243,-0.241555 -1.31876,-0.241555 -0.67243,0 -1.13596,0.26114 -0.46352,0.254613 -0.46352,0.763837 0,0.450467 0.28072,0.678965 0.2742,0.228499 0.88788,0.372126 0.33948,0.07834 0.75731,0.156684 0.42435,0.07834 0.70508,0.143628 0.85523,0.195855 1.31876,0.672437 0.46352,0.48311 0.46352,1.279589 z"
         id="path9924"
         style="fill:#ff0000" />
      <path
         d="m 187.1341,62.765349 h -1.38404 v -1.27306 h 1.38404 z m -0.0783,8.513185 h -1.22736 v -7.292352 h 1.22736 z"
         id="path9926"
         style="fill:#ff0000" />
    </g>
  </g>
</svg>
